<svg xmlns="http://www.w3.org/2000/svg" viewBox="0 0 100 100" fill="none">
  <defs>
    <linearGradient id="folder_back_s" x1="0" y1="0" x2="0" y2="100">
      <stop offset="0%" stop-color="#FFFBEB" />
      <stop offset="100%" stop-color="#FACC15" />
    </linearGradient>
    <linearGradient id="folder_front_s" x1="0" y1="0" x2="0" y2="100">
      <stop offset="0%" stop-color="#F97316" />
      <stop offset="100%" stop-color="#7C2D12" />
    </linearGradient>
    <filter id="icon_shadow_s" x="-20%" y="-20%" width="140%" height="140%">
      <feGaussianBlur in="SourceAlpha" stdDeviation="2" />
      <feOffset dx="0" dy="3" />
      <feFlood flood-color="#000000" flood-opacity="0.2" />
      <feComposite in2="SourceAlpha" operator="in" />
      <feMerge>
        <feMergeNode />
        <feMergeNode in="SourceGraphic" />
      </feMerge>
    </filter>
  </defs>
  <g filter="url(#icon_shadow_s)">
    <path d="M10 25 H 40 C 45 25, 48 30, 52 30 H 90 C 94 30, 95 32, 95 36 V 85 C 95 89, 92 92, 88 92 H 12 C 8 92, 5 89, 5 85 V 30 C 5 26, 8 25, 12 25 Z" fill="url(#folder_back_s)" />
    <rect x="15" y="32" width="70" height="45" rx="1" fill="white" opacity="0.6" />
    <path d="M5 45 H 95 V 84 C 95 89, 92 92, 88 92 H 12 C 8 92, 5 89, 5 84 V 45 Z" fill="url(#folder_front_s)" />
    <path d="M5 45 H 95 V 55 C 95 55, 70 60, 50 60 C 30 60, 5 55, 5 55 V 45 Z" fill="white" opacity="0.3" />
    <path d="M50 50 L 75 25 H 60 V 0 H 40 V 25 H 25 Z" fill="#16A34A" stroke="#000000" stroke-width="1" />
  </g>
</svg>
