<svg xmlns="http://www.w3.org/2000/svg" viewBox="0 0 100 100" fill="none">
  <defs>
    <linearGradient id="paletteSurface" x1="0" y1="0" x2="100" y2="100" gradientUnits="userSpaceOnUse">
      <stop offset="0%" stop-color="#FDE68A" />
      <stop offset="100%" stop-color="#F59E0B" />
    </linearGradient>
    <linearGradient id="paletteSide" x1="0" y1="0" x2="100" y2="100" gradientUnits="userSpaceOnUse">
      <stop offset="0%" stop-color="#D97706" />
      <stop offset="100%" stop-color="#92400E" />
    </linearGradient>
    <radialGradient id="green3D" cx="35%" cy="35%" r="65%">
      <stop offset="0%" stop-color="#86EFAC" />
      <stop offset="100%" stop-color="#15803D" />
    </radialGradient>
    <radialGradient id="blue3D" cx="35%" cy="35%" r="65%">
      <stop offset="0%" stop-color="#93C5FD" />
      <stop offset="100%" stop-color="#1D4ED8" />
    </radialGradient>
    <radialGradient id="orange3D" cx="35%" cy="35%" r="65%">
      <stop offset="0%" stop-color="#FDBA74" />
      <stop offset="100%" stop-color="#C2410C" />
    </radialGradient>
    <radialGradient id="purple3D" cx="35%" cy="35%" r="65%">
      <stop offset="0%" stop-color="#C4B5FD" />
      <stop offset="100%" stop-color="#6D28D9" />
    </radialGradient>
    <radialGradient id="red3D" cx="35%" cy="35%" r="65%">
      <stop offset="0%" stop-color="#FCA5A5" />
      <stop offset="100%" stop-color="#B91C1C" />
    </radialGradient>
    <filter id="dropShadow" x="-20%" y="-20%" width="140%" height="140%">
      <feGaussianBlur in="SourceAlpha" stdDeviation="2" />
      <feOffset dx="0" dy="8" result="offsetblur" />
      <feFlood flood-color="#000000" flood-opacity="0.2" />
      <feComposite in2="offsetblur" operator="in" />
      <feMerge>
        <feMergeNode />
        <feMergeNode in="SourceGraphic" />
      </feMerge>
    </filter>
  </defs>
  <g filter="url(#dropShadow)" transform="translate(8, 2) scale(0.85)">
    <path
      d="M50 95 C25 95 5 75 5 50 C5 25 25 5 50 5 C70 5 85 18 90 35 C92 42 85 45 80 45 C70 45 65 55 70 65 C75 75 80 75 75 85 C68 92 60 95 50 95Z"
      transform="translate(0, 8)"
      fill="url(#paletteSide)"
    />
    <path
      d="M50 95 C25 95 5 75 5 50 C5 25 25 5 50 5 C70 5 85 18 90 35 C92 42 85 45 80 45 C70 45 65 55 70 65 C75 75 80 75 75 85 C68 92 60 95 50 95Z"
      fill="url(#paletteSurface)"
      stroke="#F59E0B"
      stroke-width="0.5"
    />
    <path
      d="M50 95 C25 95 5 75 5 50 C5 25 25 5 50 5 C70 5 85 18 90 35 C92 42 85 45 80 45 C70 45 65 55 70 65 C75 75 80 75 75 85 C68 92 60 95 50 95Z"
      fill="none"
      stroke="white"
      stroke-width="2"
      stroke-opacity="0.3"
      transform="scale(0.98) translate(1,1)"
    />
    <g>
      <circle cx="35" cy="30" r="8" fill="url(#green3D)" />
      <ellipse
        cx="32"
        cy="27"
        rx="3"
        ry="1.5"
        fill="white"
        opacity="0.7"
        transform="rotate(-45 32 27)"
      />
    </g>
    <g>
      <circle cx="60" cy="28" r="8" fill="url(#blue3D)" />
      <ellipse
        cx="57"
        cy="25"
        rx="3"
        ry="1.5"
        fill="white"
        opacity="0.9"
        transform="rotate(-45 57 25)"
      />
    </g>
    <g>
      <circle cx="22" cy="50" r="8" fill="url(#orange3D)" />
      <ellipse
        cx="19"
        cy="47"
        rx="3"
        ry="1.5"
        fill="white"
        opacity="0.7"
        transform="rotate(-45 19 47)"
      />
    </g>
    <g>
      <circle cx="28" cy="72" r="8" fill="url(#purple3D)" />
      <ellipse
        cx="25"
        cy="69"
        rx="3"
        ry="1.5"
        fill="white"
        opacity="0.7"
        transform="rotate(-45 25 69)"
      />
    </g>
    <g>
      <circle cx="50" cy="80" r="8" fill="url(#red3D)" />
      <ellipse
        cx="47"
        cy="77"
        rx="3"
        ry="1.5"
        fill="white"
        opacity="0.7"
        transform="rotate(-45 47 77)"
      />
    </g>
  </g>
</svg>
